<?xml version="1.0" encoding="UTF-8"?>
<svg id="_Слой_2" data-name="Слой 2" xmlns="http://www.w3.org/2000/svg" viewBox="0 0 19.5 31.87">
  <defs>
    <style>
      .cls-1 {
        fill: #e7353c;
      }
    </style>
  </defs>
  <g id="_Слой_1-2" data-name="Слой 1">
    <path class="cls-1" d="m16.98,30.34V4.7L9.75,0,2.52,4.7v25.64l-2.52.82v.71h19.5v-.71l-2.52-.82Zm-11.41-4.47l-1.15.49v-2.15l1.15-.49v2.15Zm0-4.21l-1.15.49v-2.15l1.15-.49v2.15Zm0-4.2l-1.15.49v-2.15l1.15-.49v2.15Zm0-4.21l-1.15.49v-2.15l1.15-.49v2.15Zm0-4.2l-1.15.49v-2.15l1.15-.49v2.15Zm2.5,15.74l-1.14.49v-2.15l1.14-.49v2.15Zm0-4.21l-1.14.49v-2.15l1.14-.49v2.15Zm0-4.2l-1.14.49v-2.15l1.14-.49v2.15Zm0-4.21l-1.14.49v-2.15l1.14-.49v2.15Zm0-4.2l-1.14.49v-2.15l1.14-.49v2.15Zm4.5,17.31l-1.14-.49v-2.15l1.14.49v2.15Zm0-4.21l-1.14-.49v-2.15l1.14.49v2.15Zm0-4.2l-1.14-.49v-2.15l1.14.49v2.15Zm0-4.21l-1.14-.49v-2.15l1.14.49v2.15Zm0-4.2l-1.14-.49v-2.15l1.14.49v2.15Zm2.51,17.9l-1.15-.49v-2.15l1.15.49v2.15Zm0-4.21l-1.15-.49v-2.15l1.15.49v2.15Zm0-4.2l-1.15-.49v-2.15l1.15.49v2.15Zm0-4.21l-1.15-.49v-2.15l1.15.49v2.15Zm0-4.2l-1.15-.49v-2.15l1.15.49v2.15Z"/>
  </g>
</svg>